# Blender v2.71 (sub 0) OBJ File: 'pickaxe.blend'
# www.blender.org
mtllib pickaxe3.mtl
o Cube_Cube.004
v -0.188426 -0.072885 0.188426
v -0.188426 -0.072885 -0.188426
v 0.188426 -0.072885 -0.188426
v 0.188426 -0.072885 0.188426
v -0.188426 5.723523 0.188426
v -0.188426 5.723523 -0.188426
v 0.188426 5.723523 -0.188426
v 0.188426 5.723523 0.188426
v -0.188426 6.062221 0.188426
v -0.188426 6.062221 -0.188426
v 0.188426 6.062221 -0.188426
v 0.188426 6.062221 0.188426
v 0.210539 5.796088 0.491102
v -0.210539 5.989655 0.491102
v -0.188426 5.723523 -0.273329
v 0.188426 5.723523 -0.273329
v -0.188426 6.062221 -0.273329
v 0.188426 6.062221 -0.273329
v -0.157649 5.519811 -1.283574
v 0.157649 5.519811 -1.283574
v -0.157649 5.803187 -1.283574
v 0.157649 5.803187 -1.283574
v -0.543806 5.796088 1.493914
v 0.543806 5.796088 1.493914
v -0.543806 5.989655 1.493914
v 0.543806 5.989655 1.493914
v -0.058801 5.283132 -1.800028
v 0.058801 5.283132 -1.800028
v -0.058801 5.388826 -1.800028
v 0.058801 5.388826 -1.800028
v -0.019001 5.157876 -1.982264
v 0.019001 5.157876 -1.982264
v -0.019001 5.192032 -1.982264
v 0.019001 5.192032 -1.982264
v -0.188426 -0.478303 0.188426
v -0.188426 -0.478303 -0.188426
v 0.188426 -0.478303 -0.188426
v 0.188426 -0.478303 0.188426
v -0.105958 6.062221 0.105958
v -0.105958 6.062221 -0.105958
v 0.105958 6.062221 -0.105958
v 0.105958 6.062221 0.105958
v -0.105958 6.169388 0.105958
v -0.105958 6.169388 -0.105958
v 0.105958 6.169388 -0.105958
v 0.105958 6.169388 0.105958
v -0.210539 5.796088 0.491102
v 0.210539 5.989655 0.491102
v 0.368281 5.989655 0.992508
v 0.368281 5.796088 0.992508
vt 0.224938 0.895156
vt 0.224328 0.062575
vt 0.269062 0.066228
vt 0.296604 0.900344
vt 0.296604 0.061754
vt 0.341167 0.061754
vt 0.268280 0.898686
vt 0.269114 0.066149
vt 0.224474 0.062413
vt 0.343109 0.898794
vt 0.343109 0.060204
vt 0.298546 0.060204
vt 0.343109 0.001550
vt 0.298546 0.001550
vt 0.824287 0.287829
vt 0.834039 0.275898
vt 0.859098 0.275898
vt 0.223641 0.894950
vt 0.223592 0.943597
vt 0.268232 0.947333
vt 0.224974 0.943806
vt 0.214895 0.942983
vt 0.214860 0.894333
vt 0.269673 0.898809
vt 0.269708 0.947459
vt 0.094644 0.895958
vt 0.094614 0.855255
vt 0.213583 0.894108
vt 0.213535 0.942755
vt 0.824287 0.233309
vt 0.824287 0.221025
vt 0.868850 0.221025
vt 0.826826 0.665416
vt 0.826826 0.677607
vt 0.782263 0.677607
vt 0.032323 0.831355
vt 0.032312 0.816173
vt 0.093563 0.854802
vt 0.827926 0.074811
vt 0.865210 0.074811
vt 0.823186 0.826274
vt 0.785902 0.826274
vt 0.849715 0.665416
vt 0.849715 0.822765
vt 0.010279 0.801289
vt 0.010275 0.796383
vt 0.093522 0.895503
vt 0.031196 0.815586
vt 0.839615 0.000000
vt 0.853521 0.000000
vt 0.811498 0.904625
vt 0.797591 0.904625
vt 0.417985 0.396974
vt 0.417985 0.392032
vt 0.422478 0.392032
vt 0.031181 0.830766
vt 0.009135 0.795747
vt 0.427185 0.363561
vt 0.806791 0.933012
vt 0.802297 0.933012
vt 0.782263 0.987532
vt 0.782263 0.933012
vt 0.826490 0.933012
vt 0.269172 0.007919
vt 0.224532 0.004183
vt 0.296604 0.003100
vt 0.341167 0.003100
vt 0.224285 0.004342
vt 0.269020 0.007995
vt 0.439857 0.363561
vt 0.439857 0.394220
vt 0.868850 0.287829
vt 0.859098 0.245240
vt 0.868850 0.233309
vt 0.834039 0.245240
vt 0.388219 0.363561
vt 0.413278 0.363561
vt 0.413278 0.394220
vt 0.477875 0.394054
vt 0.465202 0.394054
vt 0.465202 0.363561
vt 0.452530 0.363561
vt 0.452530 0.394220
vt 0.452530 0.394115
vt 0.304369 0.939934
vt 0.304397 0.912132
vt 0.365745 0.917266
vt 0.365717 0.945068
vt 0.427286 0.950221
vt 0.305827 0.912184
vt 0.871465 0.331602
vt 0.821672 0.331602
vt 0.824287 0.665416
vt 0.821672 0.620670
vt 0.871465 0.620670
vt 0.428141 0.922172
vt 0.428162 0.949976
vt 0.782263 0.476683
vt 0.803019 0.404143
vt 0.910874 0.476683
vt 0.803019 0.548677
vt 0.341167 0.900344
vt 0.298546 0.898794
vt 0.782263 0.665416
vt 0.826826 0.822765
vt 0.422478 0.396974
vt 0.009130 0.800653
vt 0.826490 0.987532
vt 0.427185 0.394220
vt 0.388219 0.394220
vt 0.477875 0.363561
vt 0.427314 0.922419
vt 0.305847 0.939988
vt 0.868850 0.665416
vn -1.000000 0.000000 0.000000
vn 0.000000 0.000000 -1.000000
vn 1.000000 0.000000 0.000000
vn 0.000000 0.000000 1.000000
vn 0.000000 1.000000 0.000000
vn -0.999500 0.000000 -0.030500
vn 0.000000 -1.000000 0.000000
vn -0.982200 0.000000 -0.188000
vn 0.999500 0.000000 -0.030500
vn 0.000000 0.968700 -0.248400
vn 0.000000 -0.980300 0.197700
vn -0.977000 0.000000 -0.213400
vn 0.982200 0.000000 -0.188000
vn 0.000000 0.780000 -0.625800
vn 0.000000 -0.909100 0.416600
vn 0.977000 0.000000 -0.213400
vn 0.000000 0.679400 -0.733700
vn 0.000000 -0.824100 0.566400
vn 0.997300 0.000000 -0.072900
vn 0.943800 0.000000 -0.330400
vn -0.997300 0.000000 -0.072900
vn 0.000000 0.972400 0.233100
vn 0.000000 -0.972400 0.233100
vn -0.949000 0.000000 -0.315400
vn 0.953900 0.000000 -0.300100
usemtl Pickaxe
s off
f 6/1/1 2/2/1 1/3/1
f 7/4/2 3/5/2 2/6/2
f 8/7/3 4/8/3 3/9/3
f 5/10/4 1/11/4 4/12/4
f 1/11/4 35/13/4 38/14/4
f 12/15/5 42/16/5 39/17/5
f 7/18/3 11/19/3 12/20/3
f 10/21/1 17/22/1 15/23/1
f 5/24/1 9/25/1 10/21/1
f 17/22/6 21/26/6 19/27/6
f 7/18/3 16/28/3 18/29/3
f 11/30/5 18/31/5 17/32/5
f 6/33/7 15/34/7 16/35/7
f 21/26/8 29/36/8 27/37/8
f 18/29/9 16/28/9 20/38/9
f 18/31/10 22/39/10 21/40/10
f 15/34/11 19/41/11 20/42/11
f 24/33/4 26/43/4 25/44/4
f 29/36/12 33/45/12 31/46/12
f 22/47/13 20/38/13 28/48/13
f 22/39/14 30/49/14 29/50/14
f 19/41/15 27/51/15 28/52/15
f 31/53/2 33/54/2 34/55/2
f 30/56/16 28/48/16 32/57/16
f 30/58/17 34/55/17 33/54/17
f 27/51/18 31/59/18 32/60/18
f 36/61/7 37/62/7 38/63/7
f 4/8/3 38/64/3 37/65/3
f 3/5/2 37/66/2 36/67/2
f 2/2/1 36/68/1 35/69/1
f 42/58/4 46/70/4 43/71/4
f 9/72/5 39/17/5 40/73/5
f 10/74/5 40/73/5 41/75/5
f 11/30/5 41/75/5 42/16/5
f 45/76/5 44/77/5 43/78/5
f 41/79/3 45/80/3 46/81/3
f 40/70/2 44/82/2 45/83/2
f 39/80/1 43/84/1 44/82/1
f 12/20/19 48/85/19 13/86/19
f 50/87/20 49/88/20 26/89/20
f 9/25/21 5/24/21 47/90/21
f 9/72/22 14/91/22 48/92/22
f 8/93/23 13/94/23 47/95/23
f 47/90/24 23/96/24 25/97/24
f 26/98/5 49/99/5 25/100/5
f 24/98/7 23/100/7 50/101/7
f 48/85/25 49/88/25 50/87/25
f 25/100/5 49/99/5 48/92/5
f 23/100/7 47/95/7 13/94/7
f 5/24/1 6/1/1 1/3/1
f 6/102/2 7/4/2 2/6/2
f 7/18/3 8/7/3 3/9/3
f 8/103/4 5/10/4 4/12/4
f 4/12/4 1/11/4 38/14/4
f 9/72/5 12/15/5 39/17/5
f 8/7/3 7/18/3 12/20/3
f 6/1/1 10/21/1 15/23/1
f 6/1/1 5/24/1 10/21/1
f 15/23/6 17/22/6 19/27/6
f 11/19/3 7/18/3 18/29/3
f 10/74/5 11/30/5 17/32/5
f 7/104/7 6/33/7 16/35/7
f 19/27/8 21/26/8 27/37/8
f 22/47/9 18/29/9 20/38/9
f 17/32/10 18/31/10 21/40/10
f 16/35/11 15/34/11 20/42/11
f 23/105/4 24/33/4 25/44/4
f 27/37/12 29/36/12 31/46/12
f 30/56/13 22/47/13 28/48/13
f 21/40/14 22/39/14 29/50/14
f 20/42/15 19/41/15 28/52/15
f 32/106/2 31/53/2 34/55/2
f 34/107/16 30/56/16 32/57/16
f 29/77/17 30/58/17 33/54/17
f 28/52/18 27/51/18 32/60/18
f 35/108/7 36/61/7 38/63/7
f 3/9/3 4/8/3 37/65/3
f 2/6/2 3/5/2 36/67/2
f 1/3/1 2/2/1 35/69/1
f 39/109/4 42/58/4 43/71/4
f 10/74/5 9/72/5 40/73/5
f 11/30/5 10/74/5 41/75/5
f 12/15/5 11/30/5 42/16/5
f 46/110/5 45/76/5 43/78/5
f 42/111/3 41/79/3 46/81/3
f 41/71/2 40/70/2 45/83/2
f 40/81/1 39/80/1 44/82/1
f 8/7/19 12/20/19 13/86/19
f 24/112/20 50/87/20 26/89/20
f 14/113/21 9/25/21 47/90/21
f 12/15/22 9/72/22 48/92/22
f 5/114/23 8/93/23 47/95/23
f 14/113/24 47/90/24 25/97/24
f 13/86/25 48/85/25 50/87/25
f 14/91/5 25/100/5 48/92/5
f 50/101/7 23/100/7 13/94/7
