# Blender v2.71 (sub 0) OBJ File: 'torch.blend'
# www.blender.org
mtllib torch.mtl
o Cube
v 0.126712 -0.629762 -0.126712
v 0.126712 -0.629762 0.126712
v -0.126712 -0.629762 0.126712
v -0.126712 -0.629762 -0.126712
v 0.313429 1.000000 -0.313429
v 0.313429 1.000000 0.313430
v -0.313430 1.000000 0.313429
v -0.313429 1.000000 -0.313429
v 0.135165 2.061554 0.429371
v 0.315203 1.699332 0.120620
v -0.313429 1.283434 -0.313429
v 0.313429 1.283434 -0.313429
v 0.313429 1.283434 0.313430
v -0.313430 1.283434 0.313429
v 0.404010 1.822342 0.120620
v 0.404010 1.822342 0.072190
v 0.297340 1.822342 0.120620
v 0.009247 1.946094 0.092609
v 0.009247 1.946094 0.034701
v -0.090806 1.946094 0.034701
v -0.189922 1.817521 0.349184
v -0.189922 1.817521 0.242747
v -0.640037 1.768921 -0.047529
v -0.702923 1.768921 -0.086604
v -0.318244 1.817521 0.349184
v 0.659158 1.659074 -0.142721
v 0.659158 1.659074 -0.209483
v 0.578271 1.659074 -0.209483
v 0.164572 1.873243 -0.398066
v 0.051347 1.873243 -0.398066
v 0.051347 1.873243 -0.359604
v -0.702923 1.768921 -0.047529
v 0.135165 2.061554 0.523171
v 0.043098 2.061554 0.523171
v -0.410266 1.974753 -0.439372
v -0.410266 1.759856 -0.455868
v -0.379505 1.759856 -0.455868
vt 0.559046 0.265658
vt 0.559046 0.329335
vt 0.487630 0.329335
vt 0.732780 0.690854
vt 0.614353 0.297150
vt 0.789106 0.274128
vt 0.237601 0.664293
vt 0.078754 0.276252
vt 0.250501 0.239400
vt 0.814525 0.266664
vt 0.989421 0.244594
vt 1.000000 0.652268
vt 0.531789 0.000000
vt 0.602711 0.007473
vt 0.600886 0.420994
vt 0.591518 0.491679
vt 0.329671 0.558190
vt 0.307034 0.555805
vt 0.416089 0.473194
vt 0.602711 0.226890
vt 0.777464 0.203868
vt 0.960306 0.662973
vt 0.957883 0.683182
vt 0.941599 0.661190
vt 0.960306 0.908744
vt 0.803429 0.735388
vt 0.469843 0.628726
vt 0.438157 0.625387
vt 0.596837 0.701027
vt 0.596837 0.731073
vt 0.586575 0.704135
vt 0.885083 1.000000
vt 0.874135 0.998957
vt 0.876018 0.983245
vt 0.617313 0.136316
vt 0.734287 0.064811
vt 0.763959 0.060902
vt 0.753140 0.723097
vt 0.783134 0.690854
vt 0.783134 0.723097
vt 0.388800 0.668226
vt 0.416996 0.668002
vt 0.483724 0.835101
vt 0.507700 0.647446
vt 0.479700 0.644495
vt 0.671614 0.044244
vt 0.687758 0.042117
vt 0.797258 0.719901
vt 0.783134 0.712612
vt 0.797258 0.690854
vt 0.586575 0.701027
vt 0.586575 0.730462
vt 0.574148 0.706057
vt 0.688352 0.080806
vt 0.701853 0.079027
vt 0.114272 0.664293
vt 0.134356 0.679304
vt 0.134356 0.946390
vt 0.574148 0.684822
vt 0.592664 0.668002
vt 0.592664 0.701027
vt 0.057326 0.005412
vt 0.082551 0.000000
vt 0.231818 0.170175
vt 0.777280 0.003445
vt 0.803429 0.000000
vt 0.595626 0.668002
vt 0.594103 0.613640
vt 0.602711 0.614547
vt 0.803429 0.196330
vt 0.978325 0.174260
vt 0.060071 0.207027
vt 0.965910 0.019777
vt 0.976640 0.018423
vt 0.307034 0.952115
vt 0.307482 0.923668
vt 0.471772 0.835101
vt 0.887488 0.070085
vt 0.898390 0.068709
vt 0.289805 0.034272
vt 0.307034 0.030575
vt 0.752792 0.692098
vt 0.753140 0.724352
vt 0.605426 0.848434
vt 0.162723 0.046806
vt 0.197881 0.039262
vt 0.602711 0.690854
vt 0.753140 0.846806
vt 0.753049 0.873611
vt 0.000000 0.081730
vt 0.574148 0.806846
vt 0.555139 0.702132
vt 0.574148 0.668002
vt 0.303658 0.887045
vt 0.137198 0.789237
vt 0.134356 0.780840
vt 0.986984 0.000000
vt 0.487630 0.265658
vt 0.803429 0.681547
vt 0.307034 0.649395
vt 0.929294 0.661190
vt 0.425457 0.402509
vt 0.635924 0.133864
vt 0.307034 0.835101
vt 0.000000 0.846249
vt 0.471772 0.992645
vt 0.029225 0.075459
vt 0.303658 0.664293
vt 1.000000 0.052746
vn 0.000000 -1.000000 0.000000
vn 0.993500 -0.113800 0.000000
vn -0.000000 -0.113800 0.993500
vn -0.993500 -0.113800 -0.000000
vn 0.000000 -0.113800 -0.993500
vn 0.000000 0.266700 -0.963800
vn 0.000000 0.000000 -1.000000
vn 1.000000 0.000000 0.000000
vn 0.000000 1.000000 0.000000
vn -0.390500 0.833700 0.390500
vn 0.000000 -0.142000 -0.989900
vn 0.526200 0.668000 -0.526200
vn 0.735800 -0.677200 0.000000
vn 0.727700 0.685900 0.000000
vn -0.481600 -0.275300 0.832000
vn 0.000000 0.465100 -0.885300
vn 0.908800 0.417200 -0.000000
vn 0.986200 -0.165800 0.000000
vn -0.637000 0.450900 -0.625200
vn -0.000000 -0.260300 0.965500
vn 0.974700 0.223300 0.000000
vn 0.000000 0.076500 -0.997100
vn 0.000000 -0.286400 -0.958100
vn -1.000000 0.000000 -0.000000
vn -0.000000 0.000000 1.000000
vn -0.850500 0.526000 0.000000
vn 0.241300 0.661300 0.710300
vn -0.780000 -0.625800 0.000000
vn -0.000000 0.596700 0.802500
vn -0.626000 0.196000 -0.754800
vn -0.000000 -0.066800 0.997800
vn -0.409300 0.141300 -0.901400
vn -0.000000 0.336900 0.941600
vn 0.505200 -0.364700 -0.782100
vn 0.273700 0.112500 -0.955200
vn -0.990300 -0.138700 -0.000000
vn -0.388600 0.792100 0.470800
vn 0.489200 0.375400 -0.787300
vn -0.704300 -0.088600 0.704300
vn -0.628700 0.457600 -0.628700
vn 0.000000 -0.286500 -0.958100
vn 0.680900 0.269600 0.680900
vn -0.706500 0.040900 -0.706500
vn -0.599700 0.529900 -0.599700
vn 0.533700 0.656000 0.533700
vn -0.879000 -0.036500 0.475500
usemtl torch
s off
f 1/1/1 2/2/1 3/3/1
f 1/4/2 5/5/2 6/6/2
f 2/7/3 6/8/3 7/9/3
f 7/10/4 8/11/4 4/12/4
f 1/13/5 4/14/5 8/15/5
f 11/16/6 28/17/6 27/18/6
f 8/15/7 11/16/7 12/19/7
f 5/5/8 12/20/8 13/21/8
f 27/22/9 28/23/9 26/24/9
f 11/25/10 13/26/10 26/24/10
f 11/16/11 30/27/11 29/28/11
f 31/29/9 29/30/9 30/31/9
f 13/26/12 11/25/12 24/32/12
f 24/32/9 32/33/9 23/34/9
f 13/21/13 12/20/13 27/35/13
f 12/20/14 22/36/14 21/37/14
f 22/38/9 25/39/9 21/40/9
f 18/41/15 20/42/15 11/43/15
f 20/44/16 19/45/16 12/19/16
f 12/20/17 19/46/17 18/47/17
f 18/48/9 19/49/9 20/50/9
f 16/51/9 17/52/9 15/53/9
f 12/20/18 16/54/18 15/55/18
f 34/56/19 9/57/19 12/58/19
f 33/59/9 9/60/9 34/61/9
f 33/62/20 34/63/20 14/64/20
f 12/20/21 9/65/21 33/66/21
f 35/67/22 37/68/22 36/69/22
f 12/19/23 11/16/23 36/69/23
f 7/10/24 14/70/24 11/71/24
f 13/72/25 14/64/25 7/9/25
f 14/70/26 31/73/26 30/74/26
f 29/75/27 31/76/27 14/77/27
f 14/70/28 32/78/28 24/79/28
f 13/72/29 23/80/29 32/81/29
f 25/82/30 22/83/30 12/84/30
f 13/72/31 21/85/31 25/86/31
f 14/87/32 17/88/32 16/89/32
f 14/64/33 13/72/33 15/90/33
f 13/91/34 10/92/34 15/93/34
f 12/94/35 37/95/35 35/96/35
f 11/71/36 14/70/36 35/97/36
f 4/98/1 1/1/1 3/3/1
f 2/99/2 1/4/2 6/6/2
f 3/100/3 2/7/3 7/9/3
f 3/101/4 7/10/4 4/12/4
f 5/102/5 1/13/5 8/15/5
f 12/19/6 11/16/6 27/18/6
f 5/102/7 8/15/7 12/19/7
f 6/6/8 5/5/8 13/21/8
f 28/23/37 11/25/37 26/24/37
f 12/19/11 11/16/11 29/28/11
f 23/34/38 13/26/38 24/32/38
f 26/103/13 13/21/13 27/35/13
f 13/21/14 12/20/14 21/37/14
f 13/104/39 18/41/39 11/43/39
f 11/16/16 20/44/16 12/19/16
f 13/21/17 12/20/17 18/47/17
f 13/21/18 12/20/18 15/55/18
f 14/105/40 34/56/40 12/58/40
f 13/72/20 33/62/20 14/64/20
f 13/21/21 12/20/21 33/66/21
f 37/68/41 12/19/41 36/69/41
f 8/11/24 7/10/24 11/71/24
f 6/8/25 13/72/25 7/9/25
f 11/71/26 14/70/26 30/74/26
f 12/106/42 29/75/42 14/77/42
f 11/71/28 14/70/28 24/79/28
f 14/64/29 13/72/29 32/81/29
f 14/87/43 25/82/43 12/84/43
f 14/64/31 13/72/31 25/86/31
f 12/84/44 14/87/44 16/89/44
f 17/107/33 14/64/33 15/90/33
f 14/108/45 12/94/45 35/96/45
f 36/109/46 11/71/46 35/97/46
l 6 8
l 5 7
